/kaggle/working/opencap-processing/OpenCapData_ab7eb7cf-817d-4035-a30b-ee68773906cb/OpenSimData/Dynamics/Suhasno_4/GRF_resultant_Suhasno_4_Suhasno_4_window_0.mot
version=1
nRows=20
nColumns=19
inDegrees=yes
endheader 
time	ground_force_right_vx	ground_force_right_vy	ground_force_right_vz	ground_force_right_px	ground_force_right_py	ground_force_right_pz	ground_torque_right_x	ground_torque_right_y	ground_torque_right_z	ground_force_left_vx	ground_force_left_vy	ground_force_left_vz	ground_force_left_px	ground_force_left_py	ground_force_left_pz	ground_torque_left_x	ground_torque_left_y	ground_torque_left_z	
          0.00000000	         -8.82788610	        149.72483593	          0.96342947	          0.87753466	          0.00000000	         -0.01664096	          0.00000000	          0.02641898	          0.00000000	         47.46586693	        363.92255318	          8.57959171	          0.68455295	          0.00000000	         -0.21369589	          0.00000000	         -3.99708899	          0.00000000	
          0.05000000	         23.86038692	        226.04386625	          1.77524079	          0.88326615	          0.00000000	         -0.01089444	          0.00000000	          0.15544118	          0.00000000	         56.16781938	        286.10979076	         -2.40159274	          0.68927190	          0.00000000	         -0.22134739	          0.00000000	         -2.78641113	          0.00000000	
          0.10000000	         27.72372820	        375.60764592	         -4.15036602	          0.89730494	          0.00000000	          0.00219262	          0.00000000	          2.83593792	          0.00000000	         20.56606096	        334.11603540	         21.44354923	          0.70583338	          0.00000000	         -0.23151942	          0.00000000	         -1.45653423	          0.00000000	
          0.15000000	        -34.78506143	        478.21816872	        -14.85795482	          0.95086809	          0.00000000	          0.02668639	          0.00000000	          4.41546412	          0.00000000	          2.43468149	        151.17311528	          2.89650020	          0.73097690	          0.00000000	         -0.24245000	          0.00000000	         -0.49404331	          0.00000000	
          0.20000000	        -40.58045041	        416.52719616	        -15.37238152	          0.98610472	          0.00000000	          0.03246155	          0.00000000	         -1.20893944	          0.00000000	          3.25162363	         54.10984819	        -11.23764146	          0.75518706	          0.00000000	         -0.25140030	          0.00000000	         -0.23699703	          0.00000000	
          0.25000000	        -38.51736804	        466.90251299	          2.12679939	          1.00006233	          0.00000000	          0.03157999	          0.00000000	          2.88462463	          0.00000000	         32.26136070	         48.61550920	        -24.20669049	          0.77133831	          0.00000000	         -0.24681794	          0.00000000	         -0.19863591	          0.00000000	
          0.30000000	         25.29170247	        624.50350894	        -35.33491146	          0.97294919	          0.00000000	          0.02781549	          0.00000000	          1.69216393	          0.00000000	         11.84967003	         43.21063552	        -25.32565097	          0.77933503	          0.00000000	         -0.22943330	          0.00000000	          0.09699214	          0.00000000	
          0.35000000	         76.18244895	        710.00157138	        -66.88168461	          0.93059070	          0.00000000	          0.02269315	          0.00000000	        -13.16852812	          0.00000000	        -12.05541316	         11.40052844	          4.35907208	          0.80055542	          0.00000000	         -0.22140051	          0.00000000	          0.00142043	          0.00000000	
          0.40000000	         40.92316082	        505.55239309	        -32.54983964	          0.92467470	          0.00000000	          0.02745220	          0.00000000	         -4.47471257	          0.00000000	         -0.77399459	          0.43147252	          0.14011665	          0.87019075	          0.00000000	         -0.24446268	          0.00000000	         -0.00026023	          0.00000000	
          0.45000000	        -29.93665750	        332.88746394	        -19.49540859	          0.93403192	          0.00000000	          0.03715960	          0.00000000	          0.66679050	          0.00000000	         -0.04298563	          0.02315740	          0.01154799	          0.97564800	          0.00000000	         -0.27804870	          0.00000000	         -0.00002857	          0.00000000	
          0.50000000	        -42.64053667	        390.53832094	        -24.16801310	          0.94553262	          0.00000000	          0.04059526	          0.00000000	          2.70840572	          0.00000000	         -0.02544046	          0.01818105	          0.01377444	          1.07195466	          0.00000000	         -0.29595116	          0.00000000	         -0.00000429	          0.00000000	
          0.55000000	        111.00500916	        632.44445562	        -36.12137314	          0.94361234	          0.00000000	          0.03404866	          0.00000000	         -3.67814873	          0.00000000	         -0.00081856	          0.00055977	          0.00021659	          1.13163539	          0.00000000	         -0.30658989	          0.00000000	          0.00000114	          0.00000000	
          0.60000000	        104.73829228	        667.80054048	        -43.59259034	          0.94764987	          0.00000000	          0.03119257	          0.00000000	         -7.29742030	          0.00000000	         -0.34963800	          0.22644703	          0.02579799	          1.04325873	          0.00000000	         -0.25429834	          0.00000000	          0.00000482	          0.00000000	
          0.65000000	         54.38395939	        567.70327954	        -19.77303386	          0.96757019	          0.00000000	          0.03492666	          0.00000000	          2.88477375	          0.00000000	        -19.29530015	         12.13287652	         -2.79863539	          1.10421724	          0.00000000	         -0.25158172	          0.00000000	         -0.00000459	          0.00000000	
          0.70000000	        115.15435607	        455.74105064	          3.76008687	          0.99432147	          0.00000000	          0.03872817	          0.00000000	          4.61707138	          0.00000000	        -96.79826490	         80.85816806	        -47.22196729	          1.16287367	          0.00000000	         -0.23934919	          0.00000000	          0.00547880	          0.00000000	
          0.75000000	         14.86100756	        383.60211371	         25.37563620	          1.01226368	          0.00000000	          0.03906374	          0.00000000	          0.00940636	          0.00000000	         35.92818653	        324.36367448	        -41.58638027	          1.19858288	          0.00000000	         -0.23272601	          0.00000000	          0.97759356	          0.00000000	
          0.80000000	         54.26118679	        286.33285142	         12.93044819	          1.03032722	          0.00000000	          0.03890756	          0.00000000	          0.05581504	          0.00000000	        -23.46017587	        368.16297616	         -2.10472278	          1.20736257	          0.00000000	         -0.23770200	          0.00000000	          0.76494619	          0.00000000	
          0.85000000	         73.60300363	        166.95177793	         27.91675121	          1.04273620	          0.00000000	          0.04431315	          0.00000000	          0.04532598	          0.00000000	        -34.31999242	        256.32210325	         14.23974384	          1.21315274	          0.00000000	         -0.23972832	          0.00000000	          0.28570608	          0.00000000	
          0.90000000	        -53.00121770	         55.28999785	          2.31634731	          1.04394747	          0.00000000	          0.04451373	          0.00000000	         -0.00093271	          0.00000000	        113.10075290	        438.32928419	         36.83935094	          1.22317142	          0.00000000	         -0.24524241	          0.00000000	         -0.01577299	          0.00000000	
          0.95000000	          0.01729425	         -0.01463721	         -0.00665124	          0.00000000	          0.00000000	          0.00000000	          0.00000000	          0.00782896	          0.00000000	        112.67571960	        781.71761164	         52.30502066	          1.23868162	          0.00000000	         -0.25635793	          0.00000000	         -1.63652401	          0.00000000	
